<?xml version="1.0" encoding="UTF-8"?>
<svg width="188px" height="74px" viewBox="0 0 188 74" version="1.1" xmlns="http://www.w3.org/2000/svg" xmlns:xlink="http://www.w3.org/1999/xlink">
    <!-- Generator: Sketch 61.1 (89650) - https://sketch.com -->
    <title>404</title>
    <desc>Created with Sketch.</desc>
    <g id="Page-1" stroke="none" stroke-width="1" fill="none" fill-rule="evenodd">
        <g id="404" fill="#66AFA8" fill-rule="nonzero">
            <path d="M41.8,0 C44.3,0.7 45.6,1.8 45.8,3.3 C38.1,9.8 32.2,15.6 28,20.8 L28,21.6 C34.2,15.4 40.4,10.4 46.4,6.7 L47,10 C43.7,11.9 40.2,14.9 36.5,19.1 L36.4,21.6 L39,19.9 L42.3,19.9 L44.6,22.4 L44.5,24.9 L43.6,25.7 L43.6,26.5 L44.3,27.3 L45,27.3 L46.1,24 L47.8,24 L48.5,26.5 L47.4,30.7 L47,37.3 L47.8,37.3 L52,36.5 L52.8,37.3 L53.6,36.5 L55,40.7 L56.7,40.7 L56.8,39 L59.3,39 L59.8,43.2 L58,46.5 L58.6,49 L52,49 L49.4,51.5 L47,50.7 L46.9,52.4 L46.1,52.4 L45.4,51.6 L44.6,51.6 L44,57.3 L44.2,67.3 C43.1,67.3 42.5,68.4 42.3,70.6 L41.4,71.4 L40.6,71.4 L40.9,67.2 L40,67.2 C39.7,71.6 39,73.8 37.9,73.8 C36.8,73.8 36.1,71 35.9,65.5 L35.1,65.5 L34.7,73 L33.9,73 C32.8,73 32.4,70 32.8,63.9 L30.4,61.4 L31.5,57.2 L31.9,51.4 L6,54 L0.4,51.5 L0.4,50.7 C0.7,47.9 1.3,46.5 2.3,46.5 C2.4,44.8 1.7,44 0,44 L1.1,39.8 L0.2,39.8 C4,33.3 8.5,27.8 13.7,23.2 L13.7,24 L3.7,36.5 L3.7,37.3 L4.5,37.3 C5.9,33.4 11.3,27 20.6,18.2 L20.6,19 L15.2,25.6 L16,25.6 C22.8,17.8 31.3,9.2 41.8,0 Z M17.3,19.1 L17.3,19.9 L13.8,23.2 L13.8,22.4 L17.3,19.1 Z M24.5,11.6 L24.5,12.4 L18.3,18.2 L18.3,17.4 L24.5,11.6 Z M32.9,22.4 C32.8,23.9 29.6,27.5 23.1,33.2 L19.5,37.4 L20.3,37.4 C26.5,30.2 31.1,26.6 34.3,26.6 L34.4,24.1 L32.9,22.4 Z M22.8,38.2 L22.8,39 L25.3,39 L33.6,38.2 L34.2,29.1 C27.7,35.1 23.9,38.2 22.8,38.2 Z M33.3,2.5 L33.3,3.3 L28,8.3 L28.1,7.5 L33.3,2.5 Z M35,29.9 L34.7,34.9 L35.5,34.9 L35.8,29.9 L35,29.9 Z M35.4,23.2 L35.2,26.5 L37.6,27.3 L37.7,25.6 L35.4,23.2 Z" id="Shape"></path>
            <path d="M101.1,2.7 C104.8,4.2 107.8,6.7 110.2,10.2 L109.4,11 C110.3,14.9 111.7,16.8 113.6,16.8 L114.4,16 L116.9,26 L116.1,29.3 L116.9,31.8 C115.9,41.7 110,52.8 99.5,65 C97.8,65 97,65.6 97,66.7 L96.2,65.9 L95.4,65.9 L90.4,67.6 L85.4,66.8 L84.6,66.8 L84.6,67.6 L91.2,69.3 L91.2,70.1 L85.4,70.1 L77.9,64.3 L77.9,65.1 L79.6,69.3 L78.8,69.3 C77.1,68.8 75.2,65.5 73,59.3 L72,59.3 L72,61 L73.7,66 C71.6,66 69.7,59.1 67.9,45.2 C72.4,23.6 76.3,12.8 79.5,12.8 C79.5,11.2 80.6,9.8 82.8,8.6 L83.6,8.6 C79.2,14 77,17.6 77,19.4 L82.8,11.9 C82.8,10.2 88.9,7.1 101.1,2.7 Z M76.2,20.1 L71.2,34.2 L72,36.7 L71.2,35.9 L70.4,35.9 L70.4,36.7 L71.2,40.9 L72,40.9 L72,38.4 L71.2,37.6 C72.6,37.6 74,34 75.4,26.8 C76.5,26.8 77.1,25.4 77.1,22.6 L77.1,20.1 L76.2,20.1 L76.2,20.1 Z M81.1,46.7 L81.1,50.9 L81.9,59.2 C96.3,45.9 103.5,33.7 103.5,22.7 L103.5,16.9 L104.3,17.7 L106.8,16.9 L106.8,16 L106,15.2 L106,14.4 C103.6,14.4 97.5,17.7 87.7,24.4 C83.4,33.9 81.1,41.4 81.1,46.7 Z M90.3,64.9 L90.3,65.7 L91.1,65.7 L94.4,64.9 L94.4,64.1 L92.7,64.1 L90.3,64.9 Z M105.2,19.3 L104.4,28.4 L104.4,29.2 L105.2,29.2 L106.9,22.6 L106.1,19.3 L105.2,19.3 Z" id="Shape"></path>
            <path d="M169.8,0 C172.3,0.7 173.6,1.8 173.8,3.3 C166.2,9.8 160.3,15.6 156.1,20.7 L156.1,21.5 C162.3,15.3 168.5,10.3 174.5,6.6 L175.1,9.9 C171.8,11.8 168.3,14.8 164.6,19 L164.5,21.5 L167.1,19.8 L170.4,19.8 L172.7,22.3 L172.6,24.8 L171.7,25.6 L171.7,26.4 L172.4,27.2 L173.2,27.2 L174.3,23.9 L176,23.9 L176.7,26.4 L175.6,30.6 L175.2,37.2 L176,37.2 L180.2,36.4 L181,37.2 L181.8,36.4 L183.2,40.6 L184.9,40.6 L185,38.9 L187.5,38.9 L188,43.1 L186.1,46.4 L186.7,48.9 L180.1,48.9 L177.5,51.4 L175.1,50.6 L175,52.3 L174.2,52.3 L173.5,51.5 L172.7,51.5 L172.3,57.3 L172.5,67.3 C171.4,67.3 170.8,68.4 170.6,70.6 L169.7,71.4 L168.9,71.4 L169.2,67.2 L168,67.2 C167.7,71.6 167,73.8 165.9,73.8 C164.8,73.8 164.1,71 163.9,65.5 L163.1,65.5 L162.7,73 L161.9,73 C160.8,73 160.4,70 160.8,63.9 L158.4,61.4 L159.5,57.2 L159.9,51.4 L134,54 L128.4,51.5 L128.4,50.7 C128.7,47.9 129.3,46.5 130.3,46.5 C130.4,44.8 129.6,44 128,44 L129.1,39.8 L128.3,39.8 C132.1,33.3 136.6,27.8 141.8,23.2 L141.8,24 L131.8,36.5 L131.8,37.3 L132.6,37.3 C134,33.4 139.4,27 148.7,18.2 L148.7,19 L143.3,25.6 L144.1,25.6 C150.7,17.8 159.3,9.2 169.8,0 Z M145.3,19.1 L145.3,19.9 L141.8,23.2 L141.8,22.4 L145.3,19.1 Z M152.4,11.6 L152.4,12.4 L146.2,18.2 L146.2,17.4 L152.4,11.6 Z M160.9,22.4 C160.8,23.9 157.6,27.5 151.1,33.2 L147.5,37.4 L148.3,37.4 C154.5,30.2 159.1,26.6 162.3,26.6 L162.4,24.1 L160.9,22.4 Z M150.8,38.2 L150.8,39 L153.3,39 L161.6,38.2 L162.2,29.1 C155.7,35.1 151.9,38.2 150.8,38.2 Z M161.3,2.5 L161.3,3.3 L156,8.3 L156.1,7.5 L161.3,2.5 Z M162.9,29.9 L162.6,34.9 L163.4,34.9 L163.7,29.9 L162.9,29.9 Z M163.3,23.2 L163.1,26.5 L165.5,27.3 L165.6,25.6 L163.3,23.2 Z" id="Shape"></path>
        </g>
    </g>
</svg>